<svg width="351" height="112" viewBox="0 0 351 112" fill="none" xmlns="http://www.w3.org/2000/svg">
<g clip-path="url(#clip0_8488_77151)">
<path d="M58.18 0.0400608C27.3 -1.17994 1.27004 22.8601 0.0400444 53.7401C-1.18996 84.6201 22.85 110.65 53.73 111.87C84.61 113.1 110.63 89.0601 111.86 58.1801C113.09 27.3001 89.05 1.27006 58.18 0.0400608ZM81.8 82.0201C81.1 83.2501 79.75 83.8601 78.43 83.6801C78.02 83.6201 77.62 83.4901 77.24 83.2701C69.84 79.0601 61.78 76.3201 53.28 75.1201C44.78 73.9301 36.28 74.3401 28.01 76.3501C26.22 76.7901 24.41 75.6801 23.97 73.8901C23.53 72.1001 24.64 70.2901 26.43 69.8501C35.52 67.6401 44.87 67.1901 54.21 68.5001C63.55 69.8101 72.41 72.8301 80.54 77.4501C82.14 78.3601 82.7 80.4001 81.79 82.0101L81.8 82.0201ZM89.15 67.3301C88.01 69.4401 85.37 70.2301 83.26 69.0801C74.6 64.4001 65.24 61.3201 55.41 59.9401C45.59 58.5601 35.73 58.9301 26.12 61.0501C25.6 61.1601 25.08 61.1801 24.58 61.1101C22.83 60.8601 21.34 59.5601 20.94 57.7401C20.42 55.4001 21.91 53.0801 24.25 52.5701C34.87 50.2301 45.76 49.8201 56.61 51.3401C67.46 52.8601 77.81 56.2601 87.38 61.4401C89.49 62.5801 90.28 65.2201 89.13 67.3301H89.15ZM97.3 50.7701C96.23 52.8301 93.99 53.9101 91.81 53.6001C91.22 53.5201 90.64 53.3401 90.09 53.0501C80.01 47.8101 69.16 44.3501 57.83 42.7501C46.5 41.1601 35.11 41.5001 23.98 43.7601C21.09 44.3501 18.27 42.4801 17.68 39.5801C17.09 36.6901 18.96 33.8701 21.86 33.2801C34.18 30.7801 46.79 30.4001 59.32 32.1601C71.85 33.9201 83.87 37.7601 95.02 43.5601C97.64 44.9201 98.66 48.1501 97.3 50.7701Z" fill="white"/>
<path d="M336.03 85.1997C329.39 85.1997 323.47 82.2397 320.51 79.5197V71.1197C323.55 75.1997 329.71 78.7197 335.95 78.7197C341.15 78.7197 344.19 76.3197 344.19 73.2797C344.19 70.8797 343.15 69.2797 336.11 67.5197L332.59 66.6397C325.55 64.8797 320.83 61.6797 320.83 55.1197C320.83 48.7997 326.67 43.1997 335.87 43.1997C341.63 43.1997 346.67 45.2797 348.91 47.2797V55.1197C347.15 52.7197 342.19 49.6797 336.27 49.6797C330.83 49.6797 328.11 52.0797 328.11 54.8797C328.11 57.4397 329.47 58.6397 336.51 60.3997L340.03 61.2797C347.07 63.0397 351.23 66.5597 351.23 72.9597C351.23 79.1197 345.87 85.1997 336.03 85.1997Z" fill="white"/>
<path d="M309.06 85.0396C302.5 85.0396 297.54 81.4396 297.54 72.5596V50.3996H289.7V47.0396L304.82 34.5596H304.9V44.3996H316.02V50.3996H304.9V71.7596C304.9 76.9596 307.46 78.7196 311.06 78.7196C313.7 78.7196 315.86 77.5996 317.22 76.3996L315.86 82.9596C314.58 83.9996 312.1 85.0396 309.06 85.0396Z" fill="white"/>
<path d="M264 83.9996V44.3996H271.28V55.5196C273.12 49.0396 276.48 43.5996 282.16 43.5996C283.92 43.5996 285.2 43.9996 285.84 44.3996L286.8 51.7596C286 51.1996 284.24 50.6396 282.24 50.6396C275.92 50.6396 272.48 57.6796 271.44 64.3996V83.9996H264Z" fill="white"/>
<path d="M237.961 85.0403C230.281 85.0403 224.761 80.4003 224.761 73.0403C224.761 65.2803 230.521 59.8403 243.081 59.8403H251.561V59.1203C251.561 53.7603 249.081 49.8403 241.801 49.8403C235.881 49.8403 230.361 52.8803 227.401 56.2403V48.4003C230.201 46.0803 236.041 43.2803 242.841 43.2803C254.041 43.2803 258.841 49.6803 258.841 59.0403V80.4803C258.841 81.6803 259.001 82.8003 259.321 84.0003H251.881V76.1603C249.961 80.4003 245.401 85.0403 237.961 85.0403ZM239.481 78.9603C245.481 78.9603 249.561 74.3203 251.561 68.9603V65.5203H243.481C235.881 65.5203 232.201 68.1603 232.201 72.6403C232.201 76.4003 235.001 78.9603 239.481 78.9603Z" fill="white"/>
<path d="M187.1 84.0002V27.2002H194.54V53.7602C196.7 48.8802 201.18 43.3602 209.02 43.3602C217.42 43.3602 221.5 48.9602 221.5 57.2802V84.0002H214.06V59.2002C214.06 53.4402 211.9 49.8402 206.3 49.8402C200.38 49.8402 196.22 55.6802 194.54 61.6002V84.0002H187.1Z" fill="white"/>
<path d="M163.88 85.2799C146.92 85.2799 135.16 72.5599 135.16 55.5199C135.16 38.6399 146.92 25.9199 163.88 25.9199C172.6 25.9199 178.52 28.8799 181.72 31.5999V40.4799C178.68 36.5599 172.28 33.1199 164.44 33.1199C152.04 33.1199 143.16 42.5599 143.16 55.5199C143.16 68.5599 152.04 78.0799 164.44 78.0799C171.88 78.0799 178.28 75.1199 181.72 70.7999V79.5199C177.88 82.8799 172.04 85.2799 163.88 85.2799Z" fill="white"/>
</g>
<defs>
<clipPath id="clip0_8488_77151">
<rect width="351" height="112" fill="white"/>
</clipPath>
</defs>
</svg>
